<svg width="24" height="18" viewBox="0 0 24 18" fill="none" xmlns="http://www.w3.org/2000/svg">
<path d="M0.965013 14.5542C0.614099 14.6795 0.363446 14.8863 0.175457 15.2059C0.0250653 15.4566 0 15.5694 0 15.9767C0 16.3965 0.0250653 16.4842 0.18799 16.76C0.30705 16.948 0.495039 17.1359 0.683029 17.255L0.990078 17.443H12H23.0099L23.317 17.255C23.505 17.1359 23.693 16.948 23.812 16.76C23.9812 16.4842 24 16.3965 24 15.9704C24 15.5443 23.9812 15.4566 23.812 15.1809C23.693 14.9929 23.505 14.8049 23.317 14.6858L23.0099 14.4978L12.1003 14.4853C3.28982 14.4728 1.14674 14.4853 0.965013 14.5542Z" fill="#2B487C"/>
<path d="M0.965013 7.59218C0.614099 7.71751 0.363446 7.9243 0.175457 8.24388C0.0250653 8.49453 0 8.60733 0 9.01464C0 9.43448 0.0250653 9.52221 0.18799 9.79793C0.30705 9.98592 0.495039 10.1739 0.683029 10.293L0.990078 10.481H12H23.0099L23.317 10.293C23.505 10.1739 23.693 9.98592 23.812 9.79793C23.9812 9.52221 24 9.43448 24 9.00837C24 8.58226 23.9812 8.49453 23.812 8.21882C23.693 8.03083 23.505 7.84284 23.317 7.72378L23.0099 7.53579L12.1003 7.52326C3.28982 7.51072 1.14674 7.52326 0.965013 7.59218Z" fill="#2B487C"/>
<path d="M0.965013 0.63027C0.614099 0.755597 0.363446 0.962385 0.175457 1.28197C0.0250653 1.53262 0 1.64541 0 2.05272C0 2.47257 0.0250653 2.5603 0.18799 2.83601C0.30705 3.024 0.495039 3.21199 0.683029 3.33105L0.990078 3.51904H12H23.0099L23.317 3.33105C23.505 3.21199 23.693 3.024 23.812 2.83601C23.9812 2.5603 24 2.47257 24 2.04646C24 1.62035 23.9812 1.53262 23.812 1.2569C23.693 1.06891 23.505 0.880923 23.317 0.761863L23.0099 0.573874L12.1003 0.561341C3.28982 0.548808 1.14674 0.561341 0.965013 0.63027Z" fill="#2B487C"/>
</svg>
