<svg width="109" height="29" viewBox="0 0 109 29" fill="none" xmlns="http://www.w3.org/2000/svg">
<path d="M17.5875 6.12491C14.8875 6.12491 13.175 6.93866 11.5187 7.72616C9.99999 8.44866 8.56499 9.13116 6.31749 9.13116C4.58374 9.13116 3.34874 8.73491 2.02749 8.13991C1.73749 8.01491 1.45124 7.87366 1.15249 7.73241L0.92749 7.62741V16.7099C0.92749 25.3287 11.3912 27.9599 11.3912 27.9599C11.3912 27.9599 21.8562 25.3274 21.8562 16.7099V6.91991C20.4972 6.38459 19.0481 6.11472 17.5875 6.12491ZM19.2387 16.7099C19.2387 19.3137 17.9087 21.5349 15.2875 23.3099C14.0771 24.1133 12.7674 24.7557 11.3912 25.2212C9.41124 24.5587 3.55374 22.1374 3.55374 16.7087V11.7824C4.4489 12.0576 5.38101 12.1938 6.31749 12.1862C8.56749 12.1862 9.99999 11.5037 11.5187 10.7812C13.175 9.99366 14.8937 9.17991 17.5875 9.17991C18.1398 9.17912 18.6915 9.21587 19.2387 9.28991V16.7099Z" fill="#003087"/>
<path d="M19.2387 0.167438C18.687 0.0919246 18.1307 0.0543372 17.5737 0.0549387C14.8737 0.0549387 13.1612 0.868688 11.5037 1.65619C9.98499 2.37869 8.54999 3.06119 6.30249 3.06119C5.37083 3.06694 4.44367 2.93166 3.55249 2.65994C2.72624 2.38803 1.92184 2.05374 1.14624 1.65994L0.931244 1.55744V4.62494L1.14624 4.72619C1.92222 5.1201 2.72704 5.4544 3.55374 5.72619C4.44499 5.99747 5.37215 6.13233 6.30374 6.12619C8.55374 6.12619 9.98624 5.44369 11.505 4.72119C13.1625 3.93369 14.88 3.11994 17.575 3.11994C18.1319 3.11933 18.6882 3.15692 19.24 3.23244C20.1391 3.35692 21.0203 3.5877 21.865 3.91994V0.854938C21.0199 0.522538 20.1383 0.291752 19.2387 0.167438Z" fill="#62B5E5"/>
<path d="M32.2862 7.06995H43.6737L43.4087 9.5912V21.7499H45.8512L44.4175 27.9874H41.6575L42.48 24.2712H31.5962V27.9874H28.835V21.7499H30.585L35.7875 9.59245H32.2875L32.2862 7.06995ZM33.295 21.7499H40.625V9.5912H38.6575L33.295 21.7499Z" fill="#003087"/>
<path d="M47.71 10.9999H50.4437V16.2299H56.0975V10.9999L58.8312 10.6012V24.2712H56.0975V18.6174H50.4437V24.2712H47.71V10.9999Z" fill="#003087"/>
<path d="M62.6812 13.3612H60.7437V11.2637L62.6812 10.9987L65.415 10.4987V24.2712H62.6812V13.3612ZM63.1812 5.44995L66.1012 5.79495L65.5 8.74245L62.8187 9.1412L63.1812 5.44995Z" fill="#003087"/>
<path d="M68.6537 10.9999H76.7787L79.5125 10.6012V24.2712H76.7763V13.3612H71.3875V24.2712H68.6537V10.9999Z" fill="#003087"/>
<path d="M82.75 10.8649H83.44L84.6075 11.4487C85.6094 10.8163 86.7678 10.4761 87.9525 10.4662C91.7225 10.4662 94.2175 12.9087 94.2175 16.8899C94.2175 21.3762 90.475 24.7737 85.4837 24.8012V28.1249H82.75V10.8649ZM85.4837 13.7049V22.2787C89.3062 22.2524 91.4837 19.9424 91.4837 16.8899C91.4837 14.2087 89.6788 12.9349 87.7675 12.9349C86.97 12.9362 86.0937 13.2812 85.4837 13.7062V13.7049Z" fill="#003087"/>
<path d="M102.446 10.4674C106.667 10.4674 108.87 13.7062 108.87 17.1574C108.87 21.3787 106.454 24.8024 102.18 24.8024C97.9587 24.8024 95.7562 21.5637 95.7562 18.1124C95.75 13.8912 98.1725 10.4674 102.446 10.4674ZM102.446 12.9674C99.765 12.9674 98.4912 14.8787 98.4912 17.9049C98.4912 20.1874 99.6862 22.3112 102.181 22.3112C104.862 22.3112 106.136 20.3999 106.136 17.3737C106.135 15.0862 104.941 12.9624 102.446 12.9624V12.9674Z" fill="#003087"/>
</svg>
