<svg width="220" height="57" viewBox="0 0 220 57" fill="none" xmlns="http://www.w3.org/2000/svg">
<path d="M11.3598 56.5H8.31209C3.78662 56.5 0 52.9331 0 48.4745V45.5318C0 44.551 0.831209 43.7484 1.84713 43.7484C2.86305 43.7484 3.69427 44.551 3.69427 45.5318V48.4745C3.69427 50.9713 5.72611 52.9331 8.31209 52.9331H11.2675C12.2834 52.9331 13.1146 53.7357 13.1146 54.7166C13.1146 55.6975 12.3758 56.5 11.3598 56.5Z" fill="black"/>
<path d="M49.6879 56.5H46.6401C45.6241 56.5 44.793 55.6975 44.793 54.7166C44.793 53.7357 45.6241 52.9331 46.6401 52.9331H49.6879C52.2739 52.9331 54.3057 50.9713 54.3057 48.4745V45.5318C54.3057 44.551 55.1369 43.7484 56.1528 43.7484C57.1688 43.7484 57.9999 44.551 57.9999 45.5318V48.4745C57.9999 52.8439 54.3057 56.5 49.6879 56.5Z" fill="black"/>
<path d="M56.1528 14.0541C55.1369 14.0541 54.3057 13.2516 54.3057 12.2707V8.52548C54.3057 6.02866 52.2739 4.06688 49.6879 4.06688H45.9013C44.8853 4.06688 44.0541 3.26433 44.0541 2.28344C44.0541 1.30255 44.8853 0.5 45.9013 0.5H49.6879C54.3057 0.5 58 4.06688 58 8.52548V12.2707C58 13.2516 57.1687 14.0541 56.1528 14.0541Z" fill="black"/>
<path d="M1.93955 13.2516C0.923619 13.2516 0.0924099 12.449 0.0924099 11.4682V8.52548C0.0924099 4.15605 3.78667 0.5 8.4045 0.5H11.5446C12.5606 0.5 13.3917 1.30255 13.3917 2.28344C13.3917 3.26433 12.5606 4.06688 11.5446 4.06688H8.4045C5.81851 4.06688 3.78667 6.02867 3.78667 8.52548V11.4682C3.78667 12.449 2.95546 13.2516 1.93955 13.2516Z" fill="black"/>
<path d="M44.1465 32.2451L18.3791 9.32794C18.1019 9.06046 17.7325 9.06046 17.3631 9.14959C16.9937 9.32794 16.809 9.59551 16.809 9.95213V43.7483C16.809 44.105 16.9937 44.4617 17.3631 44.5509C17.7325 44.7292 18.1019 44.6401 18.3791 44.3725L25.3058 37.9522L29.6465 47.4044C29.7389 47.6719 30.0159 47.8502 30.293 47.9394C30.3854 47.9394 30.3854 47.9394 30.4777 47.9394C30.7548 47.9394 30.9395 47.8502 31.1243 47.6719C32.7867 45.9776 33.8949 45.8884 35.1879 45.7101C36.0191 45.621 36.8503 45.5317 37.7739 44.9967C38.2357 44.8183 38.328 44.2834 38.1433 43.8375L33.8025 34.2961L43.4077 33.6719C43.7771 33.6719 44.1465 33.4044 44.2388 33.0477C44.3312 32.6911 44.4236 32.5127 44.1465 32.2451ZM29.2771 31.5318C29.0923 31.7993 29.0923 32.0668 29.1847 32.3343L33.8025 42.5891C33.7102 42.5891 33.6178 42.5891 33.5255 42.6782C32.9714 42.7674 32.4173 42.8566 31.6784 43.3916L27.0605 33.3152C26.9682 33.0477 26.6911 32.8693 26.4141 32.7802C26.3217 32.7802 26.3217 32.7802 26.2294 32.7802C25.9522 32.7802 25.7675 32.8693 25.5828 33.0477L20.3185 37.8629V15.57L37.3121 30.6401L30.0159 31.0859C29.7389 31.0859 29.4618 31.2642 29.2771 31.5318Z" fill="black"/>
<path d="M86.2745 31.72C86.2745 28.768 87.4625 26.284 89.8385 24.268C92.2385 22.252 95.3345 21.244 99.1265 21.244V24.7C96.8945 24.7 94.9745 25.168 93.3665 26.104C91.7825 27.016 90.7505 28.252 90.2705 29.812H99.1265L98.5865 33.016H90.0905C90.3545 34.264 90.9665 35.296 91.9265 36.112C92.9105 36.904 94.2305 37.3 95.8865 37.3C97.1585 37.3 98.2385 37.168 99.1265 36.904V39.928C98.1665 40.456 96.9665 40.72 95.5265 40.72C92.6465 40.72 90.3785 39.868 88.7225 38.164C87.0905 36.436 86.2745 34.288 86.2745 31.72ZM105.066 20.092V16.672H120.51L120.15 20.092V36.58H123.462L121.518 45.04H117.774L118.89 40H104.13V45.04H100.386V36.58H102.762L109.818 20.092H105.066ZM113.706 20.092L106.434 36.58H116.37V20.092H113.706ZM125.993 40V22H129.701V29.092H137.369V22L141.077 21.46V40H137.369V32.332H129.701V40H125.993ZM146.297 40V25.204H143.669V22.36L146.297 22L150.005 21.316V40H146.297ZM146.477 19.48L146.981 14.476L150.941 14.944L150.113 18.94L146.477 19.48ZM154.399 40V22H165.415L169.123 21.46V40H165.415V25.204H158.107V40H154.399ZM173.524 45.22V21.82H174.46L176.044 22.612C177.412 21.724 178.924 21.28 180.58 21.28C183.148 21.28 185.2 22.06 186.736 23.62C188.296 25.18 189.076 27.304 189.076 29.992C189.076 33.04 187.948 35.584 185.692 37.624C183.436 39.664 180.616 40.696 177.232 40.72V45.22H173.524ZM180.328 24.628C179.272 24.628 178.24 24.976 177.232 25.672V37.3C179.752 37.276 181.732 36.592 183.172 35.248C184.636 33.88 185.368 32.128 185.368 29.992C185.368 28.264 184.876 26.944 183.892 26.032C182.908 25.096 181.72 24.628 180.328 24.628ZM191.181 31.648C191.181 28.672 191.985 26.2 193.593 24.232C195.225 22.264 197.445 21.28 200.253 21.28C202.965 21.28 205.089 22.168 206.625 23.944C208.185 25.72 208.965 27.856 208.965 30.352C208.965 33.328 208.149 35.8 206.517 37.768C204.909 39.736 202.701 40.72 199.893 40.72C197.181 40.72 195.045 39.832 193.485 38.056C191.949 36.28 191.181 34.144 191.181 31.648ZM205.257 30.64C205.257 28.984 204.825 27.58 203.961 26.428C203.097 25.252 201.861 24.664 200.253 24.664C198.477 24.664 197.133 25.252 196.221 26.428C195.333 27.604 194.889 29.248 194.889 31.36C194.889 33.016 195.321 34.432 196.185 35.608C197.049 36.76 198.285 37.336 199.893 37.336C201.669 37.336 203.001 36.748 203.889 35.572C204.801 34.396 205.257 32.752 205.257 30.64Z" fill="black"/>
</svg>
