<svg width="26" height="26" viewBox="0 0 26 26" fill="none" xmlns="http://www.w3.org/2000/svg">
<path d="M12.7461 1.15273C12.6496 1.20352 10.0902 2.66094 7.06366 4.39258L1.55389 7.54102L7.27694 7.55625C10.4254 7.56133 15.5746 7.56133 18.723 7.55625L24.4461 7.54102L18.8195 4.32656C15.7269 2.55938 13.1371 1.10195 13.0609 1.08672C12.9797 1.07148 12.8527 1.10195 12.7461 1.15273ZM13.7414 3.42773C14.6656 3.87969 14.889 5.18984 14.173 6.00742C14.0816 6.10898 13.8785 6.25625 13.7211 6.33242C13.4723 6.4543 13.3707 6.47461 13 6.47461C12.6344 6.46953 12.5226 6.44922 12.2789 6.33242C11.3344 5.87031 11.1058 4.57031 11.8269 3.74766C11.9894 3.55977 12.3195 3.37188 12.614 3.2957C12.8984 3.21953 13.4519 3.28555 13.7414 3.42773Z" fill="black"/>
<path d="M12.7969 4.37226C12.5988 4.44843 12.4922 4.62109 12.4922 4.86484C12.4922 5.13906 12.6039 5.31171 12.8273 5.38281C13.193 5.50468 13.5078 5.27109 13.5078 4.87499C13.5078 4.62109 13.3961 4.44335 13.193 4.37226C13.0051 4.30624 12.9645 4.30624 12.7969 4.37226Z" fill="black"/>
<path d="M1.06641 9.49609C1.06641 10.3746 1.11211 10.5828 1.32539 10.7352C1.43711 10.8113 2.39687 10.8164 13 10.8164C23.6031 10.8164 24.5629 10.8113 24.6746 10.7352C24.8879 10.5828 24.9336 10.3746 24.9336 9.49609V8.68359H13H1.06641V9.49609Z" fill="black"/>
<path d="M1.22383 12.025C1.31016 12.284 1.70117 12.675 2.02109 12.8324L2.31055 12.9746L3.71211 12.9898C5.03242 13.0051 5.12383 13 5.39805 12.8984C5.7332 12.7715 6.15469 12.4109 6.30195 12.1316L6.39844 11.9336H4.32656C3.18398 11.9336 2.00586 11.9184 1.71133 11.8981L1.16797 11.8676L1.22383 12.025Z" fill="black"/>
<path d="M22.0746 11.9184L19.6016 11.9336L19.698 12.1266C19.8352 12.3957 20.2465 12.7613 20.541 12.8781C20.7695 12.9645 20.9371 12.9746 22.2422 12.9746H23.6895L23.9789 12.8324C24.2938 12.6801 24.6848 12.284 24.7711 12.0352C24.827 11.8879 24.8219 11.8828 24.6898 11.893C24.6137 11.9031 23.4406 11.9133 22.0746 11.9184Z" fill="black"/>
<path d="M10.4102 11.9742C10.4102 11.9945 10.4762 12.1215 10.5574 12.2484C10.7148 12.4973 10.9129 12.6648 11.2734 12.8527C11.4969 12.9746 11.5223 12.9746 13 12.9746C14.4828 12.9746 14.498 12.9746 14.7266 12.8527C15.082 12.6648 15.2902 12.4871 15.4477 12.2434C15.5238 12.1164 15.5898 11.9945 15.5898 11.9742C15.5898 11.9539 14.427 11.9336 13 11.9336C11.5781 11.9336 10.4102 11.9539 10.4102 11.9742Z" fill="black"/>
<path d="M2.18359 17.2859V20.5664H3.80859H5.43359V17.2859V14.0055L5.22031 14.0461C4.94102 14.0969 2.44766 14.0969 2.30039 14.0461L2.18359 14.0105V17.2859Z" fill="black"/>
<path d="M11.375 17.2859V20.5664H13H14.625V17.2859V14.0055L14.4625 14.0461C14.2441 14.0969 11.7508 14.0969 11.5426 14.0461L11.375 14.0055V17.2859Z" fill="black"/>
<path d="M20.5664 17.3012V20.5664H22.1914H23.8164V17.3012V14.041H22.1914H20.5664V17.3012Z" fill="black"/>
<path d="M1.32539 21.7648C1.09687 21.9273 1.06641 22.1051 1.06641 23.3137C1.06641 24.573 1.09687 24.7102 1.39648 24.8523C1.54883 24.9234 2.69141 24.9336 13 24.9336C23.3086 24.9336 24.4512 24.9234 24.6035 24.8523C24.9031 24.7102 24.9336 24.573 24.9336 23.3137C24.9336 22.1051 24.9031 21.9273 24.6746 21.7648C24.5629 21.6887 23.6031 21.6836 13 21.6836C2.39687 21.6836 1.43711 21.6887 1.32539 21.7648Z" fill="black"/>
</svg>
