<svg width="665" height="118" viewBox="0 0 665 118" fill="none" xmlns="http://www.w3.org/2000/svg">
<g filter="url(#filter0_d_109_206)">
<path fill-rule="evenodd" clip-rule="evenodd" d="M577 17H1V102H577H577.045V101.977L661 59.5L577.045 17.0229V17H577Z" fill="#63B232"/>
</g>
<path d="M129.156 74.748V69.084C130.212 69.516 131.796 69.804 133.188 69.804C134.916 69.804 136.356 68.988 137.604 67.356L125.028 42.396H131.796L140.916 60.444L148.932 41.628L155.028 43.212L144.852 66.108C142.548 71.34 139.14 75.468 133.476 75.468C131.748 75.468 130.26 75.228 129.156 74.748ZM170.105 73.5V64.428C168.569 64.908 166.793 65.244 165.545 65.244C157.817 65.244 155.657 61.116 155.657 55.788V49.5H161.897V55.164C161.897 58.572 162.953 60.012 165.833 60.012C167.081 60.012 169.097 59.484 170.105 58.908V49.5L176.345 48.876V73.5H170.105ZM181.181 73.5V49.5H187.469V58.428H196.349V49.5L202.637 48.876V73.5H196.349V63.804H187.469V73.5H181.181ZM209.495 45.66L210.167 37.644L216.791 38.46L215.687 45.036L209.495 45.66ZM205.751 54.588V49.98L215.543 48.78V73.5H209.255V54.588H205.751ZM230.258 54.3H226.898V58.956H232.754C233.33 58.476 233.858 57.66 233.858 56.604C233.858 55.116 232.658 54.3 230.258 54.3ZM232.466 63.372H226.898V68.7H230.114C233.426 68.7 235.442 67.452 235.442 65.676C235.442 64.14 234.098 63.372 232.466 63.372ZM220.61 73.5V54.3L219.698 49.5H230.258C236.258 49.5 240.146 51.948 240.146 55.548C240.146 57.9 238.85 59.58 237.314 60.636C239.762 61.356 241.73 62.892 241.73 65.484C241.73 70.764 236.642 73.5 230.018 73.5H220.61ZM250.678 62.46C250.678 65.724 252.79 68.94 257.926 68.94C259.894 68.94 261.19 68.7 262.582 68.124V73.404C261.526 73.884 259.654 74.268 257.446 74.268C248.854 74.268 244.438 68.94 244.438 62.46C244.438 54.828 251.398 48.732 262.582 48.732V54.108C255.67 54.108 250.678 57.468 250.678 62.46ZM280.758 64.908C280.758 63.468 279.462 62.316 277.206 62.22H272.742V68.7H273.462C278.886 68.7 280.758 66.732 280.758 64.908ZM265.542 73.5L266.454 68.7V49.5H272.742V57.516H277.494C283.014 57.516 287.046 60.012 287.046 64.428C287.046 69.756 282.342 73.5 273.366 73.5H265.542ZM306.764 73.5L296.876 62.124V73.5H290.588V49.5H296.876V61.02L307.58 48.732L312.044 51.804L303.452 61.116L313.964 73.5H306.764ZM316.416 73.02V49.5H322.704V64.668L322.656 64.908L333.36 49.5H339.984L339.312 53.244V73.5H333.024V58.86L322.368 74.268L316.416 73.02ZM347.424 42.204L351.648 39.372C352.608 41.292 354.048 42.012 355.872 42.012C358.224 42.012 360.72 40.908 362.88 39.612L364.752 43.884C362.832 45.372 359.376 47.436 355.536 47.436C351.696 47.436 348.768 45.612 347.424 42.204ZM344.4 73.02V49.5H350.688V64.668L350.64 64.908L361.344 49.5H367.968L367.296 53.244V73.5H361.008V58.86L350.352 74.268L344.4 73.02ZM402.389 73.5L392.501 62.124V73.5H386.213V49.5H392.501V61.02L403.205 48.732L407.669 51.804L399.077 61.116L409.589 73.5H402.389ZM421.977 54.3H418.617V58.956H424.473C425.049 58.476 425.577 57.66 425.577 56.604C425.577 55.116 424.377 54.3 421.977 54.3ZM424.185 63.372H418.617V68.7H421.833C425.145 68.7 427.161 67.452 427.161 65.676C427.161 64.14 425.817 63.372 424.185 63.372ZM412.329 73.5V54.3L411.417 49.5H421.977C427.977 49.5 431.865 51.948 431.865 55.548C431.865 57.9 430.569 59.58 429.033 60.636C431.481 61.356 433.449 62.892 433.449 65.484C433.449 70.764 428.361 73.5 421.737 73.5H412.329ZM437.213 73.02V49.5H443.501V64.668L443.453 64.908L454.157 49.5H460.781L460.109 53.244V73.5H453.821V58.86L443.165 74.268L437.213 73.02ZM463.181 54.876V49.5H484.013L482.861 54.876H476.573V73.5H470.333V54.876H463.181ZM497.159 54.3C492.743 54.3 490.631 57.276 490.631 61.98C490.631 65.484 492.599 68.7 496.679 68.7C501.047 68.7 503.159 65.724 503.159 61.02C503.159 57.516 501.191 54.3 497.159 54.3ZM484.391 62.364C484.391 54.828 489.047 48.732 497.159 48.732C505.223 48.732 509.399 54.492 509.399 60.636C509.399 68.172 504.791 74.268 496.679 74.268C488.567 74.268 484.391 68.508 484.391 62.364ZM529.326 73.5L519.438 62.124V73.5H513.15V49.5H519.438V61.02L530.142 48.732L534.606 51.804L526.014 61.116L536.526 73.5H529.326Z" fill="white"/>
<defs>
<filter id="filter0_d_109_206" x="-3" y="17" width="668" height="93" filterUnits="userSpaceOnUse" color-interpolation-filters="sRGB">
<feFlood flood-opacity="0" result="BackgroundImageFix"/>
<feColorMatrix in="SourceAlpha" type="matrix" values="0 0 0 0 0 0 0 0 0 0 0 0 0 0 0 0 0 0 127 0" result="hardAlpha"/>
<feOffset dy="4"/>
<feGaussianBlur stdDeviation="2"/>
<feComposite in2="hardAlpha" operator="out"/>
<feColorMatrix type="matrix" values="0 0 0 0 0 0 0 0 0 0 0 0 0 0 0 0 0 0 0.25 0"/>
<feBlend mode="normal" in2="BackgroundImageFix" result="effect1_dropShadow_109_206"/>
<feBlend mode="normal" in="SourceGraphic" in2="effect1_dropShadow_109_206" result="shape"/>
</filter>
</defs>
</svg>
