<svg width="665" height="93" viewBox="0 0 665 93" fill="none" xmlns="http://www.w3.org/2000/svg">
<g filter="url(#filter0_d_121_179)">
<path fill-rule="evenodd" clip-rule="evenodd" d="M577 0H1V85H577H577.045V84.9771L661 42.5L577.045 0.0229445V0H577Z" fill="#7096DC"/>
</g>
<path d="M167.488 56.952V52.392C170.048 53.192 172.656 53.592 175.312 53.592C178.288 53.592 180.512 53.08 181.984 52.056C183.488 51 184.24 49.544 184.24 47.688C184.24 46.376 183.648 45.352 182.464 44.616C181.28 43.848 179.552 43.464 177.28 43.464H171.712L172.192 38.904H177.28C178.72 38.904 180 38.408 181.12 37.416C182.24 36.392 182.8 35.176 182.8 33.768C182.8 30.792 180.528 29.304 175.984 29.304C173.52 29.304 170.88 29.864 168.064 30.984V26.424C170.4 25.304 173.04 24.744 175.984 24.744C180.016 24.744 183.008 25.528 184.96 27.096C186.912 28.664 187.888 30.76 187.888 33.384C187.888 36.296 186.528 38.6 183.808 40.296C187.488 41.544 189.328 43.88 189.328 47.304C189.328 50.568 188.112 53.192 185.68 55.176C183.28 57.16 179.824 58.152 175.312 58.152C172.56 58.152 169.952 57.752 167.488 56.952ZM196.536 37.368L196.584 32.664C198.28 32.216 200.04 31.992 201.864 31.992C208.136 31.992 211.272 35.352 211.272 42.072V57.192H210.264L206.904 55.752C205.08 57.224 203 57.96 200.664 57.96C198.296 57.96 196.44 57.336 195.096 56.088C193.752 54.84 193.08 53.128 193.08 50.952C193.08 48.04 194.328 45.816 196.824 44.28C199.352 42.712 202.504 41.8 206.28 41.544C206.088 38.28 204.44 36.648 201.336 36.648C200.6 36.648 199.832 36.712 199.032 36.84C198.232 36.968 197.608 37.096 197.16 37.224L196.536 37.368ZM198.023 50.472C198.023 51.432 198.312 52.184 198.888 52.728C199.496 53.272 200.36 53.544 201.48 53.544C203.24 53.544 204.856 52.92 206.328 51.672V45.528C204.024 45.752 202.056 46.264 200.424 47.064C198.824 47.864 198.023 49 198.023 50.472ZM232.099 57L221.923 45.048L233.107 32.04L236.323 35.016L227.731 44.712L237.955 57H232.099ZM221.731 33V57H216.787V33H221.731ZM240.315 58.2L237.147 54.792C238.651 53.64 240.091 52.024 241.467 49.944C242.843 47.832 243.835 45.848 244.443 43.992L246.555 37.368L242.139 37.416V33H254.523L259.467 32.28V57H254.523V37.32H251.403L248.955 45.048C247.099 50.68 244.219 55.064 240.315 58.2ZM267.223 37.368L267.271 32.664C268.967 32.216 270.727 31.992 272.551 31.992C278.823 31.992 281.959 35.352 281.959 42.072V57.192H280.951L277.591 55.752C275.767 57.224 273.687 57.96 271.351 57.96C268.983 57.96 267.127 57.336 265.783 56.088C264.439 54.84 263.767 53.128 263.767 50.952C263.767 48.04 265.015 45.816 267.511 44.28C270.039 42.712 273.191 41.8 276.967 41.544C276.775 38.28 275.127 36.648 272.023 36.648C271.287 36.648 270.519 36.712 269.719 36.84C268.919 36.968 268.295 37.096 267.847 37.224L267.223 37.368ZM268.711 50.472C268.711 51.432 268.999 52.184 269.575 52.728C270.183 53.272 271.047 53.544 272.167 53.544C273.927 53.544 275.543 52.92 277.015 51.672V45.528C274.711 45.752 272.743 46.264 271.111 47.064C269.511 47.864 268.711 49 268.711 50.472ZM303.891 63.24L305.283 57H289.683V63.048H284.787V52.728H287.091C289.427 48.92 291.075 45.192 292.035 41.544L293.091 37.416L289.059 37.464V33H301.971L306.915 32.28V52.728H311.235L308.835 63.24H303.891ZM296.595 42.264C295.539 45.944 294.067 49.432 292.179 52.728H301.971V37.32L297.987 37.368L296.595 42.264ZM314.334 56.52V33H319.278V48.168L318.942 50.424L331.47 33H336.318L335.886 35.592V57H330.942V41.928L331.182 40.296L318.75 57.48L314.334 56.52ZM353.533 45.864C353.533 41.896 354.605 38.6 356.749 35.976C358.925 33.352 361.885 32.04 365.629 32.04C369.245 32.04 372.077 33.224 374.125 35.592C376.205 37.96 377.245 40.808 377.245 44.136C377.245 48.104 376.157 51.4 373.981 54.024C371.837 56.648 368.893 57.96 365.149 57.96C361.533 57.96 358.685 56.776 356.605 54.408C354.557 52.04 353.533 49.192 353.533 45.864ZM372.301 44.52C372.301 42.312 371.725 40.44 370.573 38.904C369.421 37.336 367.773 36.552 365.629 36.552C363.261 36.552 361.469 37.336 360.253 38.904C359.069 40.472 358.477 42.664 358.477 45.48C358.477 47.688 359.053 49.576 360.205 51.144C361.357 52.68 363.005 53.448 365.149 53.448C367.517 53.448 369.293 52.664 370.477 51.096C371.693 49.528 372.301 47.336 372.301 44.52ZM380.017 45.96C380.017 42.024 381.601 38.728 384.769 36.072C387.969 33.384 392.097 32.04 397.153 32.04V36.648C393.569 36.648 390.641 37.512 388.369 39.24C386.097 40.968 384.961 43.208 384.961 45.96C384.961 48.04 385.617 49.8 386.929 51.24C388.273 52.68 390.241 53.4 392.833 53.4C394.529 53.4 395.969 53.224 397.153 52.872V56.904C396.033 57.608 394.433 57.96 392.353 57.96C388.513 57.96 385.489 56.824 383.281 54.552C381.105 52.248 380.017 49.384 380.017 45.96ZM401.241 57V37.272L400.281 33H410.121C413.001 33 415.305 33.56 417.033 34.68C418.761 35.768 419.625 37.224 419.625 39.048C419.625 41.16 418.713 42.856 416.889 44.136C419.769 45 421.209 46.616 421.209 48.984C421.209 51.544 420.153 53.528 418.041 54.936C415.929 56.312 413.209 57 409.881 57H401.241ZM416.265 49.464C416.265 48.6 415.865 47.944 415.065 47.496C414.297 47.016 413.321 46.776 412.137 46.776H406.185V52.728H409.977C411.897 52.728 413.417 52.424 414.537 51.816C415.689 51.208 416.265 50.424 416.265 49.464ZM414.681 39.528C414.681 38.024 413.161 37.272 410.121 37.272H406.185V42.552H413.001C414.121 41.816 414.681 40.808 414.681 39.528ZM426.86 57V37.272H423.356V33.48L426.86 33L431.804 32.088V57H426.86ZM427.1 29.64L427.772 22.968L433.052 23.592L431.948 28.92L427.1 29.64ZM442.894 57V37.272H435.406V33H455.854L454.798 37.272H447.838V57H442.894ZM458.803 56.52V33H463.747V48.168L463.411 50.424L475.939 33H480.787L480.355 35.592V57H475.411V41.928L475.651 40.296L463.219 57.48L458.803 56.52Z" fill="white"/>
<defs>
<filter id="filter0_d_121_179" x="-3" y="0" width="668" height="93" filterUnits="userSpaceOnUse" color-interpolation-filters="sRGB">
<feFlood flood-opacity="0" result="BackgroundImageFix"/>
<feColorMatrix in="SourceAlpha" type="matrix" values="0 0 0 0 0 0 0 0 0 0 0 0 0 0 0 0 0 0 127 0" result="hardAlpha"/>
<feOffset dy="4"/>
<feGaussianBlur stdDeviation="2"/>
<feComposite in2="hardAlpha" operator="out"/>
<feColorMatrix type="matrix" values="0 0 0 0 0 0 0 0 0 0 0 0 0 0 0 0 0 0 0.25 0"/>
<feBlend mode="normal" in2="BackgroundImageFix" result="effect1_dropShadow_121_179"/>
<feBlend mode="normal" in="SourceGraphic" in2="effect1_dropShadow_121_179" result="shape"/>
</filter>
</defs>
</svg>
