<svg width="30" height="30" viewBox="0 0 30 30" fill="none" xmlns="http://www.w3.org/2000/svg">
<path d="M5.87578 30H4.29936C1.9586 30 0 28.0892 0 25.7006V24.1242C0 23.5987 0.429936 23.1688 0.955414 23.1688C1.48089 23.1688 1.91083 23.5987 1.91083 24.1242V25.7006C1.91083 27.0382 2.96178 28.0891 4.29936 28.0891H5.82801C6.3535 28.0891 6.78341 28.5191 6.78341 29.0446C6.78341 29.5701 6.40127 30 5.87578 30Z" fill="black"/>
<path d="M25.7006 30H24.1242C23.5987 30 23.1688 29.5701 23.1688 29.0446C23.1688 28.5191 23.5987 28.0891 24.1242 28.0891H25.7006C27.0382 28.0891 28.0891 27.0382 28.0891 25.7006V24.1242C28.0891 23.5987 28.5191 23.1688 29.0446 23.1688C29.57 23.1688 30 23.5987 30 24.1242V25.7006C30 28.0414 28.0892 30 25.7006 30Z" fill="black"/>
<path d="M29.0445 7.26113C28.5191 7.26113 28.0891 6.8312 28.0891 6.30572V4.29936C28.0891 2.96178 27.0382 1.91083 25.7006 1.91083H23.742C23.2165 1.91083 22.7866 1.48089 22.7866 0.955415C22.7866 0.429936 23.2165 0 23.742 0H25.7006C28.0891 0 30 1.91083 30 4.29936V6.30572C30 6.8312 29.57 7.26113 29.0445 7.26113Z" fill="black"/>
<path d="M1.00321 6.8312C0.477734 6.8312 0.0477982 6.40127 0.0477982 5.8758V4.29936C0.0477982 1.9586 1.95862 0 4.34716 0H5.97136C6.49685 0 6.92676 0.429936 6.92676 0.955415C6.92676 1.48089 6.49685 1.91083 5.97136 1.91083H4.34716C3.00958 1.91083 1.95862 2.96179 1.95862 4.29936V5.8758C1.95862 6.40127 1.52869 6.8312 1.00321 6.8312Z" fill="black"/>
<path d="M22.8344 17.0063L9.50641 4.72926C9.36306 4.58596 9.17199 4.58596 8.98092 4.63371C8.78984 4.72926 8.69431 4.87259 8.69431 5.06364V23.1687C8.69431 23.3598 8.78984 23.5509 8.98092 23.5987C9.17199 23.6942 9.36306 23.6465 9.50641 23.5031L13.0892 20.0637L15.3344 25.1273C15.3822 25.2706 15.5255 25.3662 15.6688 25.414C15.7166 25.414 15.7166 25.414 15.7643 25.414C15.9076 25.414 16.0032 25.3662 16.0988 25.2706C16.9586 24.363 17.5318 24.3152 18.2006 24.2197C18.6306 24.1719 19.0605 24.1242 19.5382 23.8375C19.7771 23.742 19.8248 23.4554 19.7293 23.2165L17.4841 18.1051L22.4523 17.7707C22.6433 17.7707 22.8344 17.6273 22.8822 17.4363C22.9299 17.2452 22.9777 17.1497 22.8344 17.0063ZM15.1433 16.6242C15.0478 16.7675 15.0478 16.9108 15.0955 17.0541L17.4841 22.5477C17.4363 22.5477 17.3885 22.5477 17.3408 22.5955C17.0542 22.6433 16.7675 22.691 16.3854 22.9777L13.9968 17.5796C13.9491 17.4362 13.8058 17.3407 13.6624 17.293C13.6147 17.293 13.6147 17.293 13.5669 17.293C13.4236 17.293 13.328 17.3407 13.2325 17.4363L10.5096 20.0159V8.07323L19.2994 16.1465L15.5255 16.3853C15.3822 16.3853 15.2389 16.4808 15.1433 16.6242Z" fill="black"/>
</svg>
