<svg width="27" height="26" viewBox="0 0 27 26" fill="none" xmlns="http://www.w3.org/2000/svg">
<g clip-path="url(#clip0_143_103)">
<path d="M20.4723 0.533194C19.4922 0.797256 18.6594 1.67577 18.4766 2.63554C18.2328 3.93554 18.9742 5.21522 20.2437 5.67226C21.2035 6.02265 22.2699 5.76366 23.0266 4.99687C24.0625 3.94062 24.0523 2.31562 23.0012 1.26444C22.3207 0.583975 21.3406 0.2996 20.4723 0.533194Z" fill="black"/>
<path d="M11.5449 4.53985C11.4637 4.57539 10.4277 5.525 9.24454 6.64727C6.76134 9.01367 6.82228 8.93242 6.82228 9.69922C6.82228 10.1309 6.83751 10.207 6.95939 10.4152C7.3047 11.0043 7.93439 11.2988 8.57423 11.1668C8.72658 11.1363 8.95001 11.0551 9.06681 10.9891C9.18869 10.918 9.91994 10.1867 10.8137 9.24219L12.3473 7.61719H12.85C13.1293 7.61719 13.3477 7.6375 13.3375 7.65781C13.3324 7.6832 11.8039 9.39453 9.95548 11.4664L6.58361 15.2293L4.26798 15.2445C1.9879 15.2598 1.9422 15.2648 1.6629 15.3766C1.33283 15.5086 0.951967 15.8184 0.774233 16.1078C0.596499 16.382 0.48478 16.8746 0.515249 17.1996C0.576186 17.7633 0.977358 18.3574 1.46486 18.6113C1.88634 18.8246 2.13517 18.8398 5.44611 18.8398C8.35587 18.8398 8.61486 18.8348 8.76212 18.7484C8.84845 18.7027 9.63048 17.9004 10.5039 16.9711C11.3723 16.0418 12.1035 15.2852 12.1238 15.2953C12.1442 15.3055 12.7637 15.9352 13.4899 16.702C14.5563 17.8141 14.8152 18.1086 14.7949 18.2C14.7797 18.2559 14.5867 19.4949 14.3582 20.9473C14.0281 23.0598 13.952 23.659 13.9723 23.9281C14.0535 24.898 14.9067 25.6141 15.8766 25.5277C16.2727 25.4871 16.7856 25.2484 17.0242 24.9844C17.3848 24.5832 17.4051 24.4918 18.1668 20.4141C18.5629 18.3066 18.8828 16.5445 18.8828 16.5039C18.8828 16.4633 18.0145 15.5594 16.9531 14.498L15.0235 12.5684L16.5113 11.0805L17.9942 9.59766L19.086 10.6945C20.3809 11.9895 20.4824 12.0605 21.1172 12.0605C21.4879 12.0605 21.5844 12.0402 21.8027 11.9234C21.9856 11.827 22.6609 11.182 24.1692 9.66367C26.1445 7.6832 26.2918 7.5207 26.3934 7.24649C26.5305 6.87578 26.5305 6.58125 26.3934 6.21055C26.2664 5.88047 25.916 5.47422 25.6266 5.32696C25.1848 5.10352 24.5602 5.10859 24.1641 5.34219C24.0676 5.40313 23.4024 6.03281 22.6813 6.74375C21.6656 7.7543 21.3508 8.0336 21.2492 8.0336C21.102 8.0336 21.1477 8.0793 19.1926 6.27149C17.6692 4.86485 17.4254 4.6668 17.1106 4.56016C16.8262 4.46875 11.7531 4.44336 11.5449 4.53985Z" fill="black"/>
</g>
<defs>
<clipPath id="clip0_143_103">
<rect width="26" height="26" fill="white" transform="translate(0.5)"/>
</clipPath>
</defs>
</svg>
