<svg width="26" height="26" viewBox="0 0 26 26" fill="none" xmlns="http://www.w3.org/2000/svg">
<path d="M7.52902 0.12167C7.13882 0.409027 7.12256 0.467672 7.10631 1.66988L7.09005 2.75481L4.64592 4.07431C2.37521 5.29997 2.1747 5.42313 1.85496 5.7574C0.787345 6.85992 0.771087 8.66617 1.81702 9.8156C2.08799 10.1147 2.26141 10.2202 3.36154 10.8008C4.17444 11.2289 4.60257 11.487 4.60257 11.5456C4.60257 11.6394 3.61624 18.19 3.59999 18.2193C3.59457 18.2252 3.44825 18.1959 3.26941 18.1431C2.87921 18.0317 2.28308 18.0317 1.91457 18.1372C1.03663 18.3894 0.310442 19.187 0.07741 20.137C-0.188138 21.2571 0.24541 22.4887 1.13418 23.1279C1.61109 23.468 4.51044 24.594 6.17418 25.0866C7.3285 25.4268 9.07895 25.7669 10.5097 25.9252C11.393 26.0249 14.65 26.0249 15.4955 25.9252C17.4302 25.6965 19.1698 25.3212 20.7793 24.7934C21.7331 24.4767 24.5078 23.3859 24.7571 23.2276C25.5429 22.7291 26.0686 21.6149 25.9927 20.6355C25.9277 19.8203 25.57 19.1049 24.9956 18.6299C24.4645 18.1959 24.1502 18.0903 23.3969 18.0845C23.0446 18.0845 22.7574 18.0727 22.7574 18.0551C22.7574 18.0375 22.5352 16.765 22.2696 15.2226C21.9174 13.2111 21.7385 12.2963 21.6193 11.9678C21.0611 10.3962 19.9176 9.25847 18.3948 8.75413C17.9071 8.58993 17.9016 8.58993 15.9507 8.56647L13.9943 8.54301L13.9347 7.65748C13.8046 5.83364 13.3277 4.36753 12.4444 3.04216C12.1084 2.53782 11.2304 1.64056 10.7264 1.27697C10.1249 0.842997 9.41495 0.461807 8.72669 0.203772C8.07095 -0.0425339 7.78372 -0.0601273 7.52902 0.12167ZM14.0864 17.1755C14.8289 17.4394 15.6309 18.1372 16.0049 18.8292C16.2271 19.2456 16.536 20.0608 16.4872 20.1136C16.4113 20.1839 15.0782 20.3423 14.0214 20.4009C12.8996 20.4596 11.4093 20.4009 10.32 20.2543C9.9623 20.2015 9.64256 20.1546 9.60463 20.137C9.55585 20.1194 9.55585 20.0373 9.62088 19.8027C9.97314 18.495 10.9378 17.4687 12.1463 17.1168C12.672 16.9585 13.5662 16.9878 14.0864 17.1755ZM4.32618 20.5241C6.08747 21.1985 7.0196 21.4976 8.12514 21.7497C11.4309 22.5121 14.7638 22.4945 18.0426 21.7146C19.0885 21.4624 19.9393 21.1868 21.6193 20.5417C22.6273 20.1605 23.2993 19.9318 23.4348 19.9318C23.7437 19.9318 24.0038 20.1018 24.1502 20.4009C24.3507 20.8173 24.2856 21.2337 23.9659 21.521C23.7762 21.697 21.0611 22.7584 19.8526 23.1279C18.4924 23.5501 17.0996 23.8375 15.4142 24.0486C14.6067 24.1483 11.4472 24.1483 10.5909 24.0486C8.93263 23.8492 7.26889 23.4973 5.87611 23.0399C4.50502 22.5884 2.1747 21.6676 2.01754 21.5093C1.71947 21.2102 1.65986 20.8056 1.85496 20.4009C2.00128 20.1077 2.26141 19.9318 2.56489 19.9318C2.69496 19.9318 3.37237 20.1605 4.32618 20.5241Z" fill="black"/>
</svg>
