<svg width="27" height="26" viewBox="0 0 27 26" fill="none" xmlns="http://www.w3.org/2000/svg">
<g clip-path="url(#clip0_143_149)">
<path d="M4.38475 3.07736C4.35936 3.08244 4.27303 3.10275 4.19686 3.11798C3.98866 3.16368 3.71444 3.42775 3.62303 3.6715C3.55194 3.86447 3.54686 4.60079 3.55702 11.0805L3.57225 18.2711L3.72967 18.4692C4.00897 18.8145 4.13085 18.8551 4.9992 18.8957C5.89803 18.9414 6.14686 18.9668 6.9746 19.0988C9.20897 19.4645 11.1437 20.3785 12.5504 21.7293L12.789 21.9578V14.6504C12.789 10.6285 12.7687 7.25158 12.7433 7.14493C12.6215 6.62697 11.4281 5.30665 10.5547 4.72267C9.25975 3.86447 7.60428 3.30587 5.8828 3.15353C5.22772 3.09259 4.46092 3.05704 4.38475 3.07736Z" fill="black"/>
<path d="M21.752 3.09768C19.6191 3.22463 17.918 3.74768 16.4453 4.72776C15.5719 5.30159 14.3785 6.62698 14.2566 7.14495C14.2312 7.25159 14.2109 10.6285 14.2109 14.6453V21.9528L14.4801 21.7039C15.9273 20.343 17.7961 19.4645 20.0254 19.0989C20.8531 18.9668 21.102 18.9414 22.0008 18.8957C22.8691 18.8551 22.991 18.8145 23.2703 18.4692L23.4277 18.2711L23.443 11.1059C23.4531 6.10393 23.443 3.87971 23.4023 3.74768C23.3414 3.52424 23.1383 3.27541 22.9504 3.17893C22.7473 3.07229 22.473 3.05705 21.752 3.09768Z" fill="black"/>
<path d="M1.03319 6.39337C0.789443 6.50509 0.682803 6.61681 0.576162 6.87072C0.510146 7.03322 0.49999 7.92697 0.49999 14.5996C0.49999 22.7957 0.484756 22.3336 0.769131 22.6383C1.04335 22.9379 1.34296 22.9735 2.13515 22.8059C5.16679 22.1711 8.35585 22.0848 10.7832 22.5723C11.1133 22.6383 11.3976 22.6891 11.4078 22.6789C11.4383 22.6434 10.9254 22.2219 10.5039 21.9426C9.45272 21.2418 8.09686 20.7442 6.52772 20.4852C6.28397 20.4445 5.59843 20.3836 5.00429 20.343C4.34413 20.2973 3.84647 20.2414 3.71444 20.1906C3.00351 19.9367 2.44491 19.3527 2.22655 18.6418C2.13007 18.332 2.12499 18.1391 2.12499 12.3094V6.29689H1.68319C1.35819 6.29689 1.18046 6.32736 1.03319 6.39337Z" fill="black"/>
<path d="M24.875 12.3094C24.875 18.1391 24.8699 18.332 24.7734 18.6418C24.5551 19.3527 23.9965 19.9367 23.2855 20.1906C23.1535 20.2414 22.666 20.2973 22.0058 20.343C21.4219 20.3785 20.782 20.4344 20.584 20.4649C19.0097 20.7086 17.5523 21.2367 16.4961 21.9426C16.0797 22.2219 15.5617 22.6434 15.5922 22.6789C15.6023 22.6891 15.8867 22.6383 16.2168 22.5723C18.6441 22.0848 21.8332 22.1711 24.8648 22.8059C25.657 22.9735 25.9566 22.9379 26.2308 22.6383C26.5152 22.3336 26.5 22.7957 26.5 14.5895C26.5 7.36837 26.4949 7.02306 26.4035 6.83009C26.2207 6.434 25.9414 6.29689 25.3066 6.29689H24.875V12.3094Z" fill="black"/>
</g>
<defs>
<clipPath id="clip0_143_149">
<rect width="26" height="26" fill="white" transform="translate(0.5)"/>
</clipPath>
</defs>
</svg>
