<svg width="28" height="37" viewBox="0 0 28 37" fill="none" xmlns="http://www.w3.org/2000/svg">
<path d="M14 0C6.2685 0 0 6.21253 0 13.875C0 16.8922 0.998083 19.6609 2.65708 21.9283C2.68683 21.9826 2.6915 22.0433 2.72533 22.0954L12.0587 35.9704C12.4915 36.6138 13.2207 37 14 37C14.7793 37 15.5085 36.6138 15.9413 35.9704L25.2747 22.0954C25.3091 22.0433 25.3132 21.9826 25.3429 21.9283C27.0019 19.6609 28 16.8922 28 13.875C28 6.21253 21.7315 0 14 0ZM14 18.5C11.4228 18.5 9.33333 16.4292 9.33333 13.875C9.33333 11.3208 11.4228 9.25 14 9.25C16.5772 9.25 18.6667 11.3208 18.6667 13.875C18.6667 16.4292 16.5772 18.5 14 18.5Z" fill="#B5B5B5"/>
</svg>
