<svg width="665" height="118" viewBox="0 0 665 118" fill="none" xmlns="http://www.w3.org/2000/svg">
<g filter="url(#filter0_d_109_216)">
<path fill-rule="evenodd" clip-rule="evenodd" d="M577 17H1V102H577H577.045V101.977L661 59.5L577.045 17.0229V17H577Z" fill="#E1B26A"/>
</g>
<path d="M82.084 48.732V43.116C84.436 42.012 87.316 41.436 90.1 41.436C99.028 41.436 102.628 45.084 102.628 49.884C102.628 53.004 100.756 55.452 98.116 56.94C102.052 58.092 104.068 60.492 104.068 63.804C104.068 69.996 99.172 74.46 89.428 74.46C86.26 74.46 83.62 73.932 81.508 73.26V67.644C83.908 68.412 86.596 68.844 89.14 68.844C94.948 68.844 97.684 67.02 97.684 64.188C97.684 61.836 95.572 60.348 91.396 60.348H85.588L86.356 55.02H91.396C93.892 55.02 96.244 53.004 96.244 50.556C96.244 48.492 94.612 47.052 89.812 47.052C87.556 47.052 84.772 47.628 82.084 48.732ZM113.209 66.396C113.209 68.028 114.217 69.084 116.041 69.084C117.721 69.084 119.353 68.364 120.217 67.788V62.412C116.905 62.748 113.209 63.852 113.209 66.396ZM109.945 55.164L109.993 49.644C109.993 49.644 112.633 48.684 115.801 48.684C123.337 48.684 126.457 52.092 126.457 58.572V73.788H124.825L121.705 71.964C120.217 73.164 117.673 74.268 115.225 74.268C110.089 74.268 106.969 71.724 106.969 67.452C106.969 61.26 113.401 58.956 120.217 58.524C120.169 55.596 118.249 54.156 115.321 54.156C112.921 54.156 109.945 55.164 109.945 55.164ZM141.168 54.252C139.584 54.252 138.24 54.78 137.376 55.356V68.94C143.424 68.556 146.88 64.716 146.88 60.156C146.88 56.22 143.952 54.252 141.168 54.252ZM131.088 80.46V49.26H133.296L135.12 50.748C136.656 49.74 139.008 48.732 141.84 48.732C148.368 48.732 153.168 53.052 153.168 60.156C153.168 67.932 146.448 73.836 137.376 74.22V80.46H131.088ZM162.1 66.396C162.1 68.028 163.108 69.084 164.932 69.084C166.612 69.084 168.244 68.364 169.108 67.788V62.412C165.796 62.748 162.1 63.852 162.1 66.396ZM158.836 55.164L158.884 49.644C158.884 49.644 161.524 48.684 164.692 48.684C172.228 48.684 175.348 52.092 175.348 58.572V73.788H173.716L170.596 71.964C169.108 73.164 166.564 74.268 164.116 74.268C158.98 74.268 155.86 71.724 155.86 67.452C155.86 61.26 162.292 58.956 169.108 58.524C169.06 55.596 167.14 54.156 164.212 54.156C161.812 54.156 158.836 55.164 158.836 55.164ZM178.154 70.956L186.89 61.02L178.97 49.5H185.93L191.21 57.132L198.026 48.588L202.538 51.996L194.378 61.74L202.538 73.5H195.482L190.106 65.676L182.954 74.364L178.154 70.956ZM205.9 78.588L211.516 71.148L204.46 49.5H211.036L215.98 65.388L216.076 65.148C219.244 60.684 220.828 55.26 220.828 51.516C220.828 50.94 220.78 50.364 220.684 49.884L226.972 48.78C227.116 49.596 227.164 50.46 227.164 51.372C227.164 56.316 224.62 62.412 220.54 68.22L211.612 81.036L205.9 78.588ZM240.492 54.3H237.132V58.956H242.988C243.564 58.476 244.092 57.66 244.092 56.604C244.092 55.116 242.892 54.3 240.492 54.3ZM242.7 63.372H237.132V68.7H240.348C243.66 68.7 245.676 67.452 245.676 65.676C245.676 64.14 244.332 63.372 242.7 63.372ZM230.844 73.5V54.3L229.932 49.5H240.492C246.492 49.5 250.38 51.948 250.38 55.548C250.38 57.9 249.084 59.58 247.548 60.636C249.996 61.356 251.964 62.892 251.964 65.484C251.964 70.764 246.876 73.5 240.252 73.5H230.844ZM260.912 66.396C260.912 68.028 261.92 69.084 263.744 69.084C265.424 69.084 267.056 68.364 267.92 67.788V62.412C264.608 62.748 260.912 63.852 260.912 66.396ZM257.648 55.164L257.696 49.644C257.696 49.644 260.336 48.684 263.504 48.684C271.04 48.684 274.16 52.092 274.16 58.572V73.788H272.528L269.408 71.964C267.92 73.164 265.376 74.268 262.928 74.268C257.792 74.268 254.672 71.724 254.672 67.452C254.672 61.26 261.104 58.956 267.92 58.524C267.872 55.596 265.952 54.156 263.024 54.156C260.624 54.156 257.648 55.164 257.648 55.164ZM278.791 73.5V49.5H285.079V58.428H293.959V49.5L300.247 48.876V73.5H293.959V63.804H285.079V73.5H278.791ZM305.041 73.5V49.5H311.329V58.428H320.209V49.5L326.497 48.876V73.5H320.209V63.804H311.329V73.5H305.041ZM338.443 58.188C338.443 60.3 340.123 61.404 341.851 61.404H345.739V54.588H345.259C340.795 54.588 338.443 55.836 338.443 58.188ZM330.475 71.196L335.851 64.38C333.739 63.18 332.011 61.212 332.011 58.716C332.011 53.196 336.811 49.5 345.163 49.5H353.083L352.027 54.588V73.5H345.739V66.3H341.515L335.467 74.412L330.475 71.196ZM381.603 59.628C380.787 62.556 379.731 65.34 378.291 68.124H386.259V55.068H382.803L381.603 59.628ZM388.179 79.74L389.475 73.5H375.267V79.548H369.075V68.124H371.571C373.443 65.1 375.123 61.404 376.035 58.044L376.803 55.068H373.155V49.5H386.259L392.499 48.876V68.124H396.819L394.419 79.74H388.179ZM411.44 54.3C407.024 54.3 404.912 57.276 404.912 61.98C404.912 65.484 406.88 68.7 410.96 68.7C415.328 68.7 417.44 65.724 417.44 61.02C417.44 57.516 415.472 54.3 411.44 54.3ZM398.672 62.364C398.672 54.828 403.328 48.732 411.44 48.732C419.504 48.732 423.68 54.492 423.68 60.636C423.68 68.172 419.072 74.268 410.96 74.268C402.848 74.268 398.672 68.508 398.672 62.364ZM440.635 73.5L441.547 68.124V49.5H447.835V68.124H453.835V49.5H460.123V68.124H466.123V49.5L472.411 48.876V73.5H440.635ZM493.389 73.5L483.501 62.124V73.5H477.213V49.5H483.501V61.02L494.205 48.732L498.669 51.804L490.077 61.116L500.589 73.5H493.389ZM513.44 54.3C509.024 54.3 506.912 57.276 506.912 61.98C506.912 65.484 508.88 68.7 512.96 68.7C517.328 68.7 519.44 65.724 519.44 61.02C519.44 57.516 517.472 54.3 513.44 54.3ZM500.672 62.364C500.672 54.828 505.328 48.732 513.44 48.732C521.504 48.732 525.68 54.492 525.68 60.636C525.68 68.172 521.072 74.268 512.96 74.268C504.848 74.268 500.672 68.508 500.672 62.364ZM532.023 55.02V49.5H544.407L550.647 48.876V73.5H544.407V54.924L541.911 54.972L540.039 61.548C538.647 66.492 536.007 70.956 531.447 74.508L527.079 70.188C530.151 67.932 533.319 63.468 534.327 59.916L535.719 55.02H532.023ZM555.494 73.02V49.5H561.782V64.668L561.734 64.908L572.438 49.5H579.062L578.39 53.244V73.5H572.102V58.86L561.446 74.268L555.494 73.02Z" fill="white"/>
<defs>
<filter id="filter0_d_109_216" x="-3" y="17" width="668" height="93" filterUnits="userSpaceOnUse" color-interpolation-filters="sRGB">
<feFlood flood-opacity="0" result="BackgroundImageFix"/>
<feColorMatrix in="SourceAlpha" type="matrix" values="0 0 0 0 0 0 0 0 0 0 0 0 0 0 0 0 0 0 127 0" result="hardAlpha"/>
<feOffset dy="4"/>
<feGaussianBlur stdDeviation="2"/>
<feComposite in2="hardAlpha" operator="out"/>
<feColorMatrix type="matrix" values="0 0 0 0 0 0 0 0 0 0 0 0 0 0 0 0 0 0 0.25 0"/>
<feBlend mode="normal" in2="BackgroundImageFix" result="effect1_dropShadow_109_216"/>
<feBlend mode="normal" in="SourceGraphic" in2="effect1_dropShadow_109_216" result="shape"/>
</filter>
</defs>
</svg>
